<svg width="256" height="256" viewBox="0 0 256 256" fill="none" xmlns="http://www.w3.org/2000/svg">
<path d="M184.925 128C184.925 159.439 159.439 184.925 128 184.925C96.5614 184.925 71.0753 159.439 71.0753 128C71.0753 96.5614 96.5614 71.0753 128 71.0753C159.439 71.0753 184.925 96.5614 184.925 128Z" stroke="white" stroke-width="12" stroke-linecap="round" stroke-linejoin="round"/>
<path d="M161.37 128C161.37 146.43 146.43 161.37 128 161.37C109.57 161.37 94.6304 146.43 94.6304 128C94.6304 109.57 109.57 94.6304 128 94.6304C146.43 94.6304 161.37 109.57 161.37 128Z" stroke="white" stroke-width="12" stroke-linecap="round" stroke-linejoin="round"/>
<path d="M137.815 128C137.815 133.42 133.42 137.815 128 137.815C122.58 137.815 118.185 133.42 118.185 128C118.185 122.58 122.58 118.185 128 118.185C133.42 118.185 137.815 122.58 137.815 128Z" stroke="white" stroke-width="12" stroke-linecap="round" stroke-linejoin="round"/>
</svg>
